<svg xmlns="http://www.w3.org/2000/svg" version="1.1" xmlns:xlink="http://www.w3.org/1999/xlink" xmlns:svgjs="http://svgjs.dev/svgjs" viewBox="0 0 800 800"><defs><linearGradient x1="50%" y1="0%" x2="50%" y2="100%" id="ssscribble-grad"><stop stop-color="hsl(206, 75%, 49%)" stop-opacity="1" offset="0%"></stop><stop stop-color="hsl(331, 90%, 56%)" stop-opacity="1" offset="100%"></stop></linearGradient></defs><g fill="none" stroke-width="1.5" stroke="url(#ssscribble-grad)" stroke-linecap="round"><path d="M948.21 174.17C692.66 207.03 685.74 241.11 916.82 278.52 1084.27 319.29 974.24 369.39 725.93 433.04 599.76 505.14 705.69 593.49 901.04 694.54 1003.24 792.42 916.59 884.52 724 953.05 539.55 983.56 464.89 967.56 495.49 902.54 597.34 811.46 696.7 711.38 753.9 637.28 775.56 624.31 753 681.19 710.43 799.38 655.17 941.53 605.71 1058.94 572.85 1102.97 539.99 1055.98 525.28 936.81 518.58 794.68 499.17 678.19 461.95 623.98 383.34 639.61 269.19 715.66 115.72 816.4 -36.77 906.85 -118.01 970.21 -90.53 984.08 50.84 951.52 200.36 881.2 248.05 787.99 111.63 689.66 -117.92 588.7 -253.32 500.85 -151.24 429.43 72.97 366.67 164.3 317.35 -15.82 277.16 -259.58 240.34 -259.33 206.58 -3.78 173.72 150.96 140.86 -1.24 110.45 -240.07 85.29 -147.21 58.28 50.12 90.19 -200.46 157.37 -172.54 205.06 13.42 251.1 210.09 278.35 311.76 267.85 280.79 215.04 179.74 117.46 59.53 -7.19 -7.32 -137.4 -11.43 -237.55 32.11 -277.28 104.9 -241.78 177.68 -137.99 257.93 -8.54 317.92 103.97 350.78 150.98 383.64 106.98 387.82 -3.76 369.54 -133.23 358.73 -238.75 345.72 -276.94 359.11 -239.9 420.17 -141.72 541.15 -12.17 712.01 113.11 863.7 212.36 941.85 267.33 883.25 279.9 729.65 254.44 582.64 209.53 588.94 162.3 775.47 111.89 1001.49 77.65 1047.29 62.5 866.83 55.79 659.97 65.46 692.57 86.66 944.09 111.22 1102.96 141.31 948.21 174.17Q948.21 174.17 948.21 174.17" opacity="0.40"></path><path d="M914.21 236.85C671.47 267.37 632.09 307.02 824.11 356.11 1025.97 406.96 1010.27 469.88 804.93 544.69 601.8 620.8 575.38 705.01 711.74 789.55 889.93 860.38 959.01 913.74 885.93 936.41 715.24 925.1 543.29 875.65 435.01 794.19 403.48 706.95 435.99 628.34 490.45 585.77 559.77 601.4 605.5 675.89 621.51 795.73 630.75 927.13 617.54 1030.93 587.03 1068.97 556.51 1028.16 510.14 922.56 443.35 790.88 369.8 672.24 268.56 600.01 146.36 586.9 39.02 631.7 -43.73 711.62 -59.23 799.08 66.09 903.7 241.31 885.11 -21.27 785.69 -189.41 700.41 -190.35 615.91 -9.58 539.82 173.38 465.27 171.71 402.7 -41.92 352.16 -245.72 303.44 -212.52 263.99 30.21 233.47 184.38 202.96 69.62 182.82 -162.7 173.99 -251.78 166.99 -98.28 174.05 131.46 195.71 229.7 218.92 126.6 253.17 -55.64 291.43 -169.82 316.35 -122.47 327.5 37.44 312.1 225.5 262.61 344.24 178.51 370.84 66.08 318.57 -53.14 235.58 -160.43 165.33 -227.6 106.49 -236.88 85.97 -182.02 94.1 -75.18 113.31 44.73 142.7 144.14 173.21 184.98 203.72 146.96 233.92 49.36 272.26 -70.26 321.66 -178.33 397.7 -235.47 509.42 -228.75 632.55 -163.82 765.79 -57.86 865.09 61.15 885.52 174.39 810.59 260.02 662.51 311.33 542.59 328.67 531.41 319.12 677.37 295.33 891.39 257.82 1021.85 223.86 945.98 200.62 670.53 174.98 1007.91 196.38 914.21 236.85Q914.21 236.85 914.21 236.85" opacity="0.54"></path><path d="M880.21 369.39C651.67 397.56 585.01 437.69 732.04 488.42 943.76 539.08 1011.24 599.54 884.49 666.34 668.91 728.74 532.41 790.19 550.47 842.13 692.01 876.5 842.12 888.48 909.87 870.94 870.66 829.76 746.86 763.22 600.42 682.06 462.56 610.95 374.02 560.23 331.81 549.09 324.91 588.92 335.69 675.34 343.37 792.75 357.1 911.99 352.59 1002.52 324.42 1034.97 296.26 999.93 245.76 907.62 178.91 787.82 118.11 671.16 56.09 586.53 14.18 548.96 7.58 562.38 49.74 614.83 144.19 686.85 247.21 768.06 330.58 833.88 332.87 873.83 228.2 889.77 44.7 876.19 -126.16 840.45 -173.54 787.27 -62.31 724.93 132.62 661.99 238.72 594.83 155.21 534.21 -67.37 483.51 -225.27 432.8 -164.32 392.7 64.21 364.52 -2.76 325.11 245.34 366.46 134.69 384.21 -33.94 376.55 -124.75 349.7 -95.39 296.85 33.92 219.98 196.47 120.77 329.79 10.24 425.51 -129.96 360.4 -151.69 320.28 -11.62 299.68 97.3 303.07 183.92 331.24 218.98 359.4 186.55 411.02 101.74 484.74 -6.63 558.34 -113.17 648.84 -183.57 740.15 -202.76 803.25 -170.99 827.03 -95.02 786.03 5.42 696.11 115.9 574 215.84 481.6 293.94 489.16 348.4 613.36 376.86 811.33 385.9 961.3 377.37 966.59 362.3 809.54 348.71 598.5 326.12 989.64 333.79 880.21 369.39Q880.21 369.39 880.21 369.39" opacity="0.11"></path><path d="M846.21 515.03C633.15 540.85 544.9 575.95 644.62 618.18 843.53 659.06 971.1 704.1 936.55 748.67 768.44 786.26 582.51 815.91 485.19 830.96 513.29 830.68 630.12 809.41 757.64 765.67 847.07 710.88 855.04 644.26 795.33 577.64 686.94 530.93 567.9 510.37 464.73 527.6 372.15 585.92 307.4 678.55 263.61 789.89 227.56 895.98 199.47 973.69 173.66 1000.97 147.84 971.3 125.51 891.83 112.86 784.98 107.96 673.97 125.73 582.64 173.57 526.2 232 511.12 308.52 533.59 377.11 581.68 397.03 649.08 351.99 715.78 228.72 770.06 -6.35 822.86 16.76 800.23 247.34 746.42 262.96 701.08 120.69 655.51 -88.18 614.32 -197.85 571.81 -114.84 536.58 98.21 510.76 245.71 484.94 199.94 469.74 15.2 463.56 -154.55 456.06 -167.31 454.66 -24.66 455.25 173.69 448.95 296.19 437.18 287.73 413.74 168.93 374.9 26.14 317.77 -63.62 241.17 -71.98 153.04 3.21 55.73 120.61 -38.54 256.38 -113.52 368.98 -159.16 446.83 -163.01 499.47 -125.51 526.4 -48.88 542.84 52.14 551.29 149.03 565.13 223.28 590.95 252.97 616.77 225.71 653.34 153.24 693.59 57.12 725.84 -44.26 745.88 -122.2 737.98 -161.6 704.88 -159.91 634.8 -116.2 538.83 -42.61 461.22 50.88 423.09 148.12 465.29 236.74 588.9 314.33 762.3 372.67 907.98 412.74 943.34 437.49 843.99 450.36 664.56 457.51 540.82 457.69 568.29 459.62 748.01 467.43 942.71 473.89 993.71 489.21 846.21 515.03Q846.21 515.03 846.21 515.03" opacity="0.82"></path><path d="M812.12 611.42C615.71 634.89 511.99 661.43 565.64 689.16 793.42 747.64 450.1 710.11 531.29 638.31 645.47 586.36 741.06 533.92 791.92 491.42 799 472.63 761.8 480.53 701.44 520.65 622.74 591 547.4 684.38 486.31 786.63 424.69 878.95 381.22 944.46 357.75 966.98 334.27 942.27 331.91 875.06 349.27 781.82 366.09 679.55 398.73 587 436.76 518.08 456.44 479.8 454.98 473.76 411.72 494.15 324.7 537.91 195.4 591.08 50.46 643.25 -57.38 695.17 -93.42 733.9 -29 757.07 175.6 770.18 161.97 726.6 -100.53 687.95 -163.24 659.8 -64.28 633.05 132.12 609.57 273.65 586.1 257.45 567.02 108.16 550.91 -69.26 533.06 -148.13 514.82 -86.73 492.75 75.5 464.29 244.29 426.69 339.63 376.88 331.99 317.53 242.16 245.1 126.69 162.42 22.4 79.48 -25.14 -1.5 -13.77 -69.71 46.1 -114.53 133.62 -129.55 223.95 -108.47 319.02 -56.76 396.49 22.42 453.63 115.64 507.07 199.82 544.63 262.27 568.1 286.98 591.58 264.46 599.87 203.71 590.69 120.44 577.83 27.25 543.06 -52.76 488.67 -105.91 439.01 -128.83 390.14 -115.67 366.42 -72.44 391.21 -5.5 472.43 74.76 607.48 157.48 753.71 240.38 871.39 313.39 903.51 373.49 832.63 424.25 684.9 462.79 539.85 492.05 495.62 514.95 587.81 533.84 774.28 552.11 932.66 568.64 953.67 587.93 812.21 611.41Q812.12 611.42 812.12 611.42" opacity="0.63"></path><path d="M779.03 617.14C600.18 638.27 486.5 655.94 497.76 669.2 621.91 681.13 779.74 686.26 885.47 682.66 894.41 675.29 803.3 657.03 660.65 627.58 515.37 595.5 420.42 555.27 391.6 511.3 425.02 475.02 495.6 445.78 572.64 431.25 649.41 439.18 699.33 470.5 720.57 526.48 724.09 602.26 708.3 691.49 683.82 782.28 653.89 860.63 625.91 914.67 604.78 932.87 583.66 912.69 570.39 857.03 560.48 777.66 545.12 686.55 522.48 597.72 482.36 522.92 424.5 468.37 339.79 438.65 230.47 432.29 120.87 448.29 19.96 478.67 -41.13 515.71 -40 560.11 29.89 600.43 153.17 632.34 273.82 661.41 345.99 679.18 321.56 686.04 200.35 689.06 30.49 683.43 -101.8 671.14 -121.21 657.51 -11.81 639.64 167.03 618.52 300.26 597.4 308.38 574.02 197.33 547.81 32 520.26 -88.06 487.46 -104.59 447.83 -15.25 404.36 134.93 351.81 279.01 290.19 372.73 225.72 388.95 155.07 342.46 82.98 252 18.25 158.88 -37.17 89.36 -75.17 44.44 -90.82 37.25 -80.06 57.4 -41 97.22 18.31 145.56 95.11 190.58 178.07 239.22 249.29 276.14 300.67 297.27 320.87 318.39 302.68 322.72 252.94 313.92 182.74 308.74 100.1 298.83 22.89 295.62 -37.4 312.07 -77.9 354.05 -90.29 431.53 -76.23 533.61 -39.69 657.06 14.58 775.21 78.55 849.39 150.21 858.21 220.77 786.49 285.4 664.41 347.41 533.16 400.46 459.31 444.44 491.32 484.65 623.42 517.95 796.9 545.86 916.1 572.44 912.26 596.02 779.03 617.14Q779.03 617.14 779.03 617.14" opacity="0.25"></path><path d="M744.11 530.02C556.33 559.6 856.38 523.84 781.49 484.79 661.05 459.19 533.74 431.91 430.93 407.4 363.6 393.61 341.21 390.22 352.59 401.84 391.83 431.35 439.33 478.82 481.23 542.95 524.86 617.94 552.8 698.95 563.81 776.68 572.7 841.25 567.32 884.67 548.54 898.98 529.76 882.87 498.48 837.92 454.17 772.28 407.75 694.01 345.65 613.03 269.48 538.58 195.03 475.43 116.62 429.21 48.43 401.04 8.11 390.83 3.55 395.5 46.26 410.34 124.46 435.73 229.5 463.62 330.4 489.59 384.22 517.84 370.41 539.81 278.87 553.82 25.11 563.98 338.81 502.69 281.44 458.68 143.66 426.73 9.07 387.76 -66.33 342.07 -60 295.52 24.22 242.62 149.4 185.43 282.14 130.52 381.88 75.67 432.65 25.67 433.95 -13.77 396.67 -40.7 341.81 -50.04 273.83 -41.43 216.56 -12.05 177.78 37.33 147.11 98.02 135.44 168.31 138.2 239.33 144.96 297.73 159.23 338.87 178 354.98 196.78 340.67 219.18 301.05 247.82 243.73 280.48 173.25 326.3 102.92 389.5 41.69 460.81 -8.66 549.01 -39.29 645.93 -49.25 729.74 -41.32 793.99 -15.67 817.32 22.73 791.18 71.85 713.72 126.09 600.53 180.63 494.9 237.63 427.5 290.52 434.89 337.16 524.05 383.02 669.3 422.2 814.34 454.31 893.4 485.87 868.43 511.23 744.2 530.01Q744.11 530.02 744.11 530.02" opacity="0.16"></path><path d="M710.2 387.11C454.64 419.97 440.64 421.88 641.46 399.35 818.23 381.99 776.07 355.57 598.62 343.74 401.52 371.34 298.92 445.51 273.07 566.5 293.49 703.51 305.68 820.96 272.81 864.97 239.95 817.96 165.16 698.76 87.79 561.65 56.69 442.05 108.01 370.04 262.04 344.52 400.07 372.15 -21.69 425.89 234.2 392.11 388.95 359.25 246.48 298.47 26.76 218.65 -26.06 143.75 139.83 64.8 343.15 7.94 474.29 -9.6 484.15 27.54 447.7 123.06 381.66 236.08 355.14 341.96 388 388.97 420.87 344.96 510 240.83 632.98 127.9 726.38 31 767.8 -8.3 679.74 7.15 519.48 62.06 388.43 139.76 465.35 214.06 709.16 293.54 864.95 354.25 710.2 387.11Q710.2 387.11 710.2 387.11" opacity="0.75"></path><path d="M676.12 249.76C447.62 277.93 376.81 286.69 497.28 283.91 691.95 289.11 785.28 298.95 742.11 329.06 603.32 387.05 452.95 478.12 346.95 593.57 261.56 707.76 213.5 798.53 185.33 830.98 157.16 795.94 151.56 703.41 188.14 588.63 245.33 473.7 351.74 383.96 453.61 327.54 459.86 299.19 336.66 290.76 121.34 286.46 -19.76 290.04 39.62 281.65 268.12 253.49 419.95 225.32 348.43 180.04 158.97 127.65 12.93 83.14 32.8 47.61 164.9 39.04 340.9 58.54 470.08 118.4 537.37 212.67 570.94 306.81 587.61 387.92 615.78 422.98 643.94 390.54 680.94 311.2 696.2 217.65 677.73 122.83 592.52 61.64 453.44 40.56 358.23 47.36 368.21 81.48 534.86 125.09 744.97 176.69 827.96 221.59 676.21 249.75Q676.12 249.76 676.12 249.76" opacity="0.44"></path><path d="M642.12 176.7C445.72 200.17 340.2 219.7 376.03 239.91 516.85 266.54 657.45 304.94 728.16 361.31 728.18 432.03 666.11 522.08 590.93 620.29 502.22 708.5 438.91 774.46 415.44 796.98 391.96 772.27 410.55 704.64 458.59 615.53 493.1 517.18 518.53 427.66 487.75 357.82 386.27 302.65 220.78 265.38 62.75 239.56 9.71 220.18 105.72 201.11 302.12 177.64 443.65 154.16 432.26 128.52 304.59 107.22 141.32 92.36 51.74 93 58.99 117.4 141.3 156.47 253.8 221.09 348.52 302.23 441.65 374.13 500.66 432.25 524.13 456.98 547.62 434.47 533.34 378.03 480.9 307.02 426.86 226.02 350.98 160.85 299.42 120.9 322.9 95.29 437.36 93.52 617.82 107.56 762.72 128.03 783.67 153.22 642.21 176.69Q642.12 176.7 642.12 176.7" opacity="0.20"></path><path d="M608.54 199.21C448.24 217.98 331.46 244.33 300.53 278.58 354.79 316 454.19 366.07 548.32 428.17 630.98 494.2 670.27 568.94 674.56 642.68 663.41 704.57 641.55 748.61 622.78 762.93 604 746.83 590.08 701.31 568.68 638.42 531.85 564.11 463.26 489.27 355.98 423.47 237.24 361.88 117.93 312.4 49.9 275.47 67.07 241.76 176.24 215.73 336.54 196.95 460.62 178.18 491.73 168.43 434.37 169.59 316.49 173.98 201.23 194.16 128.52 231.14 94.36 272.32 106.97 327.25 140.96 387.8 189.31 436.93 230.32 474.83 249.1 490.93 267.88 476.61 262.65 440.18 246.84 392.05 245.39 332.08 262.09 277.25 320.86 235.83 418.17 198.35 553.35 177.59 685 172.71 756.12 171 732.62 180.43 608.54 199.21Q608.54 199.21 608.54 199.21" opacity="0.73"></path><path d="M574.12 307.77C345.62 335.94 266.85 409.79 327.46 509.95 457.97 605.21 528.56 696.53 500.39 728.98 472.22 693.94 350.64 600.92 183.21 505.07 85.68 404.96 141.62 331.46 370.12 303.3 521.95 275.13 464.81 297.62 337.88 360.82 206.11 419.75 169.03 489.94 197.2 524.98 225.36 492.53 313.45 424.05 482.13 365.7 645.97 302.45 725.95 279.6 574.12 307.77Q574.12 307.77 574.12 307.77" opacity="0.23"></path><path d="M540.21 455.77C263.58 493.33 267.01 637.83 229.46 694.97 191.9 634.49 127.58 488.55 404.21 450.99 554.6 413.44 408.08 498.49 445.64 558.97 483.19 501.83 690.6 418.22 540.21 455.77Q540.21 455.77 540.21 455.77" opacity="0.85"></path></g></svg>